<mxfile host="app.diagrams.net" modified="2023-03-31T20:19:49.824Z" agent="Mozilla/5.0 (Macintosh; Intel Mac OS X 10_15_7) AppleWebKit/537.36 (KHTML, like Gecko) Chrome/111.0.0.0 Safari/537.36" etag="d2hRBhhNSO4N8jiopLkM" version="21.1.2" type="device">
  <diagram name="Page-1" id="PiVJ_XnIGAkLwOx3X1oB">
    <mxGraphModel dx="1026" dy="591" grid="1" gridSize="10" guides="1" tooltips="1" connect="1" arrows="1" fold="1" page="1" pageScale="1" pageWidth="850" pageHeight="1100" math="0" shadow="0">
      <root>
        <mxCell id="0" />
        <mxCell id="1" parent="0" />
        <mxCell id="71OXibwH4jEHoegeOa95-2" value="" style="rounded=0;whiteSpace=wrap;html=1;fontColor=#000000;" parent="1" vertex="1">
          <mxGeometry x="39" y="103" width="790" height="640" as="geometry" />
        </mxCell>
        <mxCell id="71OXibwH4jEHoegeOa95-3" value="&lt;font&gt;DB Layer&lt;/font&gt;" style="rounded=1;whiteSpace=wrap;html=1;fillColor=#f5f5f5;strokeColor=#666666;fontColor=#000000;" parent="1" vertex="1">
          <mxGeometry x="340" y="300" width="400" height="170" as="geometry" />
        </mxCell>
        <mxCell id="Hn7DzW7WtiBOwI5ZSYlD-10" value="" style="edgeStyle=orthogonalEdgeStyle;rounded=0;orthogonalLoop=1;jettySize=auto;html=1;fontSize=17;labelBackgroundColor=none;fontColor=#000000;strokeColor=#E07A5F;" parent="1" source="Hn7DzW7WtiBOwI5ZSYlD-1" target="Hn7DzW7WtiBOwI5ZSYlD-2" edge="1">
          <mxGeometry relative="1" as="geometry" />
        </mxCell>
        <mxCell id="Hn7DzW7WtiBOwI5ZSYlD-1" value="Client" style="sketch=0;outlineConnect=0;dashed=0;verticalLabelPosition=bottom;verticalAlign=top;align=center;html=1;fontSize=12;fontStyle=0;aspect=fixed;shape=mxgraph.aws4.resourceIcon;resIcon=mxgraph.aws4.client;labelBackgroundColor=none;fillColor=#F2CC8F;strokeColor=#E07A5F;fontColor=#000000;" parent="1" vertex="1">
          <mxGeometry x="62" y="141.5" width="50" height="50" as="geometry" />
        </mxCell>
        <mxCell id="Hn7DzW7WtiBOwI5ZSYlD-12" value="" style="edgeStyle=orthogonalEdgeStyle;rounded=0;orthogonalLoop=1;jettySize=auto;html=1;fontSize=17;entryX=0;entryY=0.5;entryDx=0;entryDy=0;labelBackgroundColor=none;fontColor=#000000;strokeColor=#E07A5F;" parent="1" source="Hn7DzW7WtiBOwI5ZSYlD-2" target="Hn7DzW7WtiBOwI5ZSYlD-6" edge="1">
          <mxGeometry relative="1" as="geometry">
            <mxPoint x="266.5" y="158" as="targetPoint" />
          </mxGeometry>
        </mxCell>
        <mxCell id="Hn7DzW7WtiBOwI5ZSYlD-2" value="" style="verticalLabelPosition=bottom;sketch=0;html=1;verticalAlign=top;align=center;points=[[0.145,0.145,0],[0.5,0,0],[0.855,0.145,0],[1,0.5,0],[0.855,0.855,0],[0.5,1,0],[0.145,0.855,0],[0,0.5,0]];pointerEvents=1;shape=mxgraph.cisco_safe.compositeIcon;bgIcon=ellipse;resIcon=mxgraph.cisco_safe.capability.load_balancer;labelBackgroundColor=none;fillColor=#F2CC8F;strokeColor=#E07A5F;fontColor=#000000;" parent="1" vertex="1">
          <mxGeometry x="182" y="145" width="43" height="43" as="geometry" />
        </mxCell>
        <mxCell id="Hn7DzW7WtiBOwI5ZSYlD-4" value="&lt;div style=&quot;text-align: center;&quot;&gt;&lt;b style=&quot;background-color: initial;&quot;&gt;&lt;font style=&quot;font-size: 17px;&quot;&gt;DB1&lt;/font&gt;&lt;/b&gt;&lt;/div&gt;Id&lt;br style=&quot;border-color: var(--border-color);&quot;&gt;&lt;span style=&quot;&quot;&gt;Long_Url&lt;/span&gt;&lt;br style=&quot;border-color: var(--border-color);&quot;&gt;&lt;span style=&quot;&quot;&gt;Short_Url&lt;/span&gt;&lt;br style=&quot;border-color: var(--border-color);&quot;&gt;&lt;span style=&quot;&quot;&gt;Created_Date&lt;/span&gt;" style="shape=datastore;whiteSpace=wrap;html=1;align=left;labelBackgroundColor=none;fillColor=#F2CC8F;strokeColor=#E07A5F;fontColor=#000000;" parent="1" vertex="1">
          <mxGeometry x="366" y="320" width="120" height="130" as="geometry" />
        </mxCell>
        <mxCell id="Hn7DzW7WtiBOwI5ZSYlD-6" value="URL Shortner Service" style="rounded=1;whiteSpace=wrap;html=1;labelBackgroundColor=none;fillColor=#F2CC8F;strokeColor=#E07A5F;fontColor=#000000;" parent="1" vertex="1">
          <mxGeometry x="352" y="134.75" width="148" height="63.5" as="geometry" />
        </mxCell>
        <mxCell id="Hn7DzW7WtiBOwI5ZSYlD-7" value="&lt;div style=&quot;text-align: center;&quot;&gt;&lt;b style=&quot;background-color: initial;&quot;&gt;&lt;font style=&quot;font-size: 17px;&quot;&gt;DB2&lt;/font&gt;&lt;/b&gt;&lt;/div&gt;Id&lt;br style=&quot;border-color: var(--border-color);&quot;&gt;&lt;span style=&quot;&quot;&gt;Long_Url&lt;/span&gt;&lt;br style=&quot;border-color: var(--border-color);&quot;&gt;&lt;span style=&quot;&quot;&gt;Short_Url&lt;/span&gt;&lt;br style=&quot;border-color: var(--border-color);&quot;&gt;&lt;span style=&quot;&quot;&gt;Created_Date&lt;/span&gt;" style="shape=datastore;whiteSpace=wrap;html=1;align=left;labelBackgroundColor=none;fillColor=#F2CC8F;strokeColor=#E07A5F;fontColor=#000000;" parent="1" vertex="1">
          <mxGeometry x="610" y="320" width="120" height="130" as="geometry" />
        </mxCell>
        <mxCell id="Hn7DzW7WtiBOwI5ZSYlD-8" value="Schedular Service" style="rounded=1;whiteSpace=wrap;html=1;labelBackgroundColor=none;fillColor=#F2CC8F;strokeColor=#E07A5F;fontColor=#000000;" parent="1" vertex="1">
          <mxGeometry x="520" y="640" width="120" height="60" as="geometry" />
        </mxCell>
        <mxCell id="Hn7DzW7WtiBOwI5ZSYlD-22" value="" style="endArrow=classic;html=1;rounded=0;fontSize=9;exitX=0.5;exitY=1;exitDx=0;exitDy=0;labelBackgroundColor=none;fontColor=#000000;strokeColor=#E07A5F;" parent="1" source="Hn7DzW7WtiBOwI5ZSYlD-6" target="Hn7DzW7WtiBOwI5ZSYlD-4" edge="1">
          <mxGeometry relative="1" as="geometry">
            <mxPoint x="607" y="298" as="sourcePoint" />
            <mxPoint x="482" y="278" as="targetPoint" />
          </mxGeometry>
        </mxCell>
        <mxCell id="Hn7DzW7WtiBOwI5ZSYlD-23" value="store in the db" style="edgeLabel;resizable=0;html=1;align=center;verticalAlign=middle;fontSize=9;labelBackgroundColor=none;fontColor=#000000;fontStyle=1" parent="Hn7DzW7WtiBOwI5ZSYlD-22" connectable="0" vertex="1">
          <mxGeometry relative="1" as="geometry" />
        </mxCell>
        <mxCell id="Hn7DzW7WtiBOwI5ZSYlD-24" value="" style="endArrow=classic;html=1;rounded=0;fontSize=9;entryX=0.15;entryY=0.05;entryDx=0;entryDy=0;entryPerimeter=0;exitX=0.5;exitY=1;exitDx=0;exitDy=0;labelBackgroundColor=none;fontColor=#000000;strokeColor=#E07A5F;" parent="1" source="Hn7DzW7WtiBOwI5ZSYlD-6" target="Hn7DzW7WtiBOwI5ZSYlD-7" edge="1">
          <mxGeometry relative="1" as="geometry">
            <mxPoint x="412" y="98" as="sourcePoint" />
            <mxPoint x="463.5999999999999" y="318" as="targetPoint" />
          </mxGeometry>
        </mxCell>
        <mxCell id="Hn7DzW7WtiBOwI5ZSYlD-25" value="store in the db" style="edgeLabel;resizable=0;html=1;align=center;verticalAlign=middle;fontSize=9;labelBackgroundColor=none;fontColor=#000000;fontStyle=1" parent="Hn7DzW7WtiBOwI5ZSYlD-24" connectable="0" vertex="1">
          <mxGeometry relative="1" as="geometry" />
        </mxCell>
        <mxCell id="Hn7DzW7WtiBOwI5ZSYlD-33" value="" style="endArrow=classic;html=1;rounded=0;fontSize=9;exitX=0.5;exitY=0;exitDx=0;exitDy=0;entryX=0.5;entryY=1;entryDx=0;entryDy=0;labelBackgroundColor=none;fontColor=#000000;strokeColor=#E07A5F;" parent="1" source="Hn7DzW7WtiBOwI5ZSYlD-8" target="Hn7DzW7WtiBOwI5ZSYlD-7" edge="1">
          <mxGeometry relative="1" as="geometry">
            <mxPoint x="542" y="568" as="sourcePoint" />
            <mxPoint x="642" y="568" as="targetPoint" />
          </mxGeometry>
        </mxCell>
        <mxCell id="Hn7DzW7WtiBOwI5ZSYlD-34" value="check every url expired or not in db2&amp;nbsp;" style="edgeLabel;resizable=0;html=1;align=center;verticalAlign=middle;fontSize=9;labelBackgroundColor=none;fontColor=#000000;fontStyle=1;rotation=-60;" parent="Hn7DzW7WtiBOwI5ZSYlD-33" connectable="0" vertex="1">
          <mxGeometry relative="1" as="geometry">
            <mxPoint x="5" y="15" as="offset" />
          </mxGeometry>
        </mxCell>
        <mxCell id="Hn7DzW7WtiBOwI5ZSYlD-38" value="Delete expired" style="endArrow=classic;html=1;rounded=0;fontSize=9;entryX=0;entryY=0.5;entryDx=0;entryDy=0;labelBackgroundColor=none;fontColor=#000000;strokeColor=#E07A5F;fontStyle=1;exitX=0.5;exitY=0;exitDx=0;exitDy=0;" parent="1" source="Hn7DzW7WtiBOwI5ZSYlD-8" target="Hn7DzW7WtiBOwI5ZSYlD-7" edge="1">
          <mxGeometry x="-0.003" relative="1" as="geometry">
            <mxPoint x="572" y="678" as="sourcePoint" />
            <mxPoint x="592" y="608" as="targetPoint" />
            <mxPoint as="offset" />
          </mxGeometry>
        </mxCell>
        <mxCell id="Hn7DzW7WtiBOwI5ZSYlD-40" value="Delete expired" style="endArrow=classic;html=1;rounded=0;fontSize=9;entryX=1;entryY=0.5;entryDx=0;entryDy=0;exitX=0.5;exitY=0;exitDx=0;exitDy=0;labelBackgroundColor=none;fontColor=#000000;strokeColor=#E07A5F;fontStyle=1" parent="1" source="Hn7DzW7WtiBOwI5ZSYlD-8" target="Hn7DzW7WtiBOwI5ZSYlD-4" edge="1">
          <mxGeometry relative="1" as="geometry">
            <mxPoint x="512" y="678" as="sourcePoint" />
            <mxPoint x="602" y="473" as="targetPoint" />
          </mxGeometry>
        </mxCell>
        <mxCell id="Hn7DzW7WtiBOwI5ZSYlD-42" value="Url Shortener Design" style="text;html=1;align=center;verticalAlign=middle;resizable=0;points=[];autosize=1;fillColor=#eeeeee;fontSize=26;fontStyle=1;fontFamily=Arial;fontSource=https%3A%2F%2Ffonts.googleapis.com%2Fcss%3Ffamily%3DArial;labelBackgroundColor=none;strokeColor=#36393d;fontColor=#000000;" parent="1" vertex="1">
          <mxGeometry x="282" y="38" width="280" height="40" as="geometry" />
        </mxCell>
        <mxCell id="Hn7DzW7WtiBOwI5ZSYlD-43" value="External loadbalancer" style="text;html=1;align=center;verticalAlign=middle;resizable=0;points=[];autosize=1;strokeColor=none;fillColor=none;fontColor=#000000;" parent="1" vertex="1">
          <mxGeometry x="142" y="188" width="140" height="30" as="geometry" />
        </mxCell>
      </root>
    </mxGraphModel>
  </diagram>
</mxfile>
